<?xml version="1.0" encoding="UTF-8"?>
<!DOCTYPE svg PUBLIC "-//W3C//DTD SVG 1.1//EN" "http://www.w3.org/Graphics/SVG/1.1/DTD/svg11.dtd">
<!-- Creator: CorelDRAW 2018 (64-Bit) -->
<svg xmlns="http://www.w3.org/2000/svg" xml:space="preserve" width="91.44mm" height="91.44mm" version="1.1" style="shape-rendering:geometricPrecision; text-rendering:geometricPrecision; image-rendering:optimizeQuality; fill-rule:evenodd; clip-rule:evenodd"
viewBox="0 0 9144 9144"
 xmlns:xlink="http://www.w3.org/1999/xlink">
 <defs>
  <style type="text/css">
   <![CDATA[
    .fil0 {fill:black}
   ]]>
  </style>
 </defs>
 <g id="Layer_x0020_1">
  <metadata id="CorelCorpID_0Corel-Layer"/>
  <path class="fil0" d="M410.91 1818.23c379.34,-311.24 1587.39,-1486.72 2009.95,-1489.14 247.83,-1.37 481.87,171.63 624.36,694.58 247.13,906.96 26.44,3089.54 663.1,2980.7 237.11,-40.52 578.94,-294.65 1128.63,-1200.86 572.35,-943.47 803.84,-1619.95 1443.04,-2070.93 639.21,-450.98 1598.11,-809.94 2401.86,-718.14 65.53,7.5 125.89,15.83 181.76,25.08l-410.35 1064.28c-489.16,32.19 -1212.79,109.61 -1480.03,481.13 -337.09,468.56 -356.85,751.09 -542.57,1219.34l1375.4 0 -258.81 676.48 -1152.96 0c-72.57,927.34 -349.47,3116.44 -718.54,3894.11 -493.19,1039.21 -914.44,1579.42 -2227.03,1734.17 -564.09,66.58 -1196.09,46.81 -1637.9,-135.89l518.24 -460.83c2756.51,642.01 2615.86,-3461 2832.67,-5031.56 -299.92,779.71 -2407.65,2688.48 -2982.99,839.55 -263.11,-845.76 108.94,-2250.37 -498.55,-2662.42 -337.97,-229.21 -1176.95,555.81 -1399.74,758.43l130.46 -598.08z"/>
 </g>
</svg>
